<?xml version="1.0" encoding="UTF-8"?>
<svg id="Layer_2" data-name="Layer 2" xmlns="http://www.w3.org/2000/svg" viewBox="0 0 50 50">
  <defs>
    <style>
      .cls-1 {
        fill: #fff;
      }

      .cls-2 {
        fill: #f4af38;
      }
    </style>
  </defs>
  <g id="Camada_2" data-name="Camada 2">
    <g>
      <rect class="cls-2" x="0" y="0" width="50" height="50" rx="25" ry="25"/>
      <path class="cls-1" d="m27.95,19.31c0-1.99-.86-2.99-2.59-2.99-.97,0-1.68.34-2.13,1.02-.45.68-.7,1.74-.75,3.17h-6.09c.14-3.14,1.09-5.49,2.84-7.07,1.75-1.58,3.96-2.37,6.63-2.37s4.9.71,6.33,2.11c1.42,1.41,2.13,3.25,2.13,5.51,0,2.5-.96,4.95-2.88,7.35-1.92,2.39-4.22,4.42-6.89,6.07h10.17v5.03h-18.38v-4.67c7.73-5.52,11.59-9.9,11.59-13.16Z"/>
    </g>
  </g>
</svg>