<?xml version="1.0" encoding="UTF-8"?>
<svg id="Layer_2" data-name="Layer 2" xmlns="http://www.w3.org/2000/svg" viewBox="0 0 50 50">
  <defs>
    <style>
      .cls-1 {
        fill: #fff;
      }

      .cls-2 {
        fill: #f4af38;
      }
    </style>
  </defs>
  <g id="Camada_2" data-name="Camada 2">
    <g>
      <rect class="cls-2" x="0" y="0" width="50" height="50" rx="25" ry="25"/>
      <path class="cls-1" d="m30.05,11.46c1.29.62,2.27,1.47,2.94,2.55.67,1.08,1,2.3,1,3.66,0,1.68-.43,3.03-1.29,4.05-.86,1.02-1.94,1.67-3.23,1.93v.18c3.33,1.07,4.99,3.15,4.99,6.23,0,1.48-.34,2.8-1.02,3.96-.68,1.15-1.67,2.05-2.97,2.7-1.3.64-2.86.97-4.69.97-2.96,0-5.32-.73-7.05-2.19s-2.68-3.68-2.82-6.67h6.09c.05,1.14.37,2.04.95,2.7.58.66,1.43.98,2.55.98.9,0,1.61-.27,2.13-.8.52-.53.78-1.23.78-2.08,0-2.11-1.53-3.17-4.59-3.17h-1.17v-5.07h1.13c2.75.05,4.12-.94,4.12-2.95,0-.88-.24-1.55-.71-2.02s-1.11-.71-1.91-.71c-.88,0-1.57.3-2.08.89-.51.6-.8,1.39-.88,2.39h-6.09c.12-2.72.97-4.81,2.55-6.27,1.58-1.46,3.79-2.19,6.64-2.19,1.8,0,3.34.31,4.63.93Z"/>
    </g>
  </g>
</svg>