<?xml version="1.0" encoding="UTF-8"?>
<svg id="Layer_2" data-name="Layer 2" xmlns="http://www.w3.org/2000/svg" viewBox="0 0 50 50">
  <defs>
    <style>
      .cls-1 {
        fill: #fff;
      }

      .cls-2 {
        fill: #f4af38;
      }
    </style>
  </defs>
  <g id="Camada_2" data-name="Camada 2">
    <g>
      <rect class="cls-2" x="0" y="0" width="50" height="50" rx="25" ry="25"/>
      <path class="cls-1" d="m34.28,16.51h-11.59v5.21c.51-.58,1.22-1.04,2.13-1.37.91-.33,1.9-.49,2.97-.49,1.72,0,3.17.38,4.34,1.15s2.03,1.79,2.59,3.08c.56,1.29.84,2.71.84,4.27,0,2.82-.79,5.05-2.37,6.69s-3.8,2.46-6.67,2.46c-1.95,0-3.63-.35-5.07-1.04-1.44-.69-2.54-1.66-3.32-2.9-.78-1.24-1.19-2.67-1.24-4.3h6.09c.12.83.46,1.51,1,2.04.55.54,1.29.8,2.24.8,1.09,0,1.91-.35,2.46-1.06s.82-1.64.82-2.81-.29-1.98-.88-2.59c-.58-.61-1.4-.91-2.44-.91-.8,0-1.47.18-2,.53-.54.35-.9.81-1.09,1.37h-6.05v-15.6h17.24v5.47Z"/>
    </g>
  </g>
</svg>