<?xml version="1.0" encoding="UTF-8"?>
<svg id="Layer_2" data-name="Layer 2" xmlns="http://www.w3.org/2000/svg" viewBox="0 0 50 50">
  <defs>
    <style>
      .cls-1 {
        fill: #fff;
      }

      .cls-2 {
        fill: #f4af38;
      }
    </style>
  </defs>
  <g id="Camada_2" data-name="Camada 2">
    <g>
      <rect class="cls-2" x="0" y="0" width="50" height="50" rx="25" ry="25"/>
      <path class="cls-1" d="m27.57,16.4c-.5-.53-1.21-.8-2.13-.8-1.41,0-2.41.65-3.01,1.95-.6,1.3-.87,3.3-.82,6,.41-1,1.12-1.78,2.13-2.35,1.01-.57,2.18-.86,3.52-.86,2.43,0,4.35.74,5.76,2.21,1.41,1.47,2.11,3.58,2.11,6.33,0,1.73-.35,3.26-1.06,4.59-.71,1.34-1.75,2.38-3.12,3.12-1.37.74-3.02,1.11-4.94,1.11-3.77,0-6.37-1.17-7.8-3.5-1.43-2.33-2.15-5.57-2.15-9.7,0-4.76.77-8.27,2.3-10.52,1.53-2.25,4.02-3.37,7.47-3.37,2.72,0,4.79.77,6.2,2.31,1.41,1.54,2.2,3.49,2.37,5.85h-5.83c-.17-1.04-.5-1.83-1-2.37Zm-4.54,14.89c.63.69,1.55,1.04,2.77,1.04,1.09,0,1.95-.3,2.57-.91.62-.61.93-1.5.93-2.66s-.32-2.06-.95-2.68-1.49-.93-2.59-.93-1.92.3-2.62.89c-.71.6-1.06,1.44-1.06,2.53s.32,2.02.95,2.72Z"/>
    </g>
  </g>
</svg>