<?xml version="1.0" encoding="UTF-8"?>
<svg id="Layer_2" data-name="Layer 2" xmlns="http://www.w3.org/2000/svg" viewBox="0 0 88.17 88.17">
  <defs>
    <style>
      .cls-1 {
        fill: none;
        stroke: #f7a833;
        stroke-linecap: round;
        stroke-linejoin: round;
        stroke-width: 2.76px;
      }
    </style>
  </defs>
  <g id="Camada_1" data-name="Camada 1">
    <g id="engineer-contractor">
      <path class="cls-1" d="m27.55,33.07s.27,5.47.98,8.47c1.75,7.35,8.28,12.2,15.55,12.2s13.78-4.83,15.54-12.2c.72-3,1-8.47,1-8.47"/>
      <g>
        <path class="cls-1" d="m34.44,50.98s.57,2.83-1.38,6.89"/>
        <path class="cls-1" d="m53.73,50.98s-.57,2.83,1.38,6.89"/>
      </g>
      <path class="cls-1" d="m86.8,86.8s0-16.53-11.02-22.04l-19.29-8.27"/>
      <path class="cls-1" d="m1.38,86.8s0-16.53,11.02-22.04l19.29-8.27"/>
      <g>
        <path class="cls-1" d="m24.8,66.13l-1.38,8.27,11.02-9.64s9.64,4.13,9.64,22.04"/>
        <line class="cls-1" x1="34.44" y1="64.75" x2="31.69" y2="56.49"/>
      </g>
      <g>
        <path class="cls-1" d="m63.38,66.13l1.38,8.27-11.02-9.64s-9.64,4.13-9.64,22.04"/>
        <line class="cls-1" x1="53.73" y1="64.75" x2="56.49" y2="56.49"/>
      </g>
      <g>
        <line class="cls-1" x1="57.86" y1="86.8" x2="71.64" y2="86.8"/>
        <line class="cls-1" x1="62" y1="81.29" x2="62" y2="85.42"/>
        <line class="cls-1" x1="68.89" y1="82.66" x2="67.51" y2="86.8"/>
      </g>
      <g>
        <path class="cls-1" d="m20.67,23.42v1.38c2.44,3.95,12.34,5.51,23.42,5.51s20.98-1.56,23.42-5.51v-1.38"/>
        <path class="cls-1" d="m56.49,22.04c-3.6.66-7.85,1.38-12.4,1.38s-8.8-.72-12.4-1.38"/>
        <path class="cls-1" d="m48.22,8.27V2.95c0-.67-.48-1.27-1.15-1.36-.97-.14-1.96-.21-2.98-.21s-2.02.07-2.98.21c-.67.1-1.15.69-1.15,1.36v5.31"/>
        <path class="cls-1" d="m63.38,20.67c0-8.39-6.26-15.74-15.16-17.5"/>
        <path class="cls-1" d="m39.95,3.16c-8.89,1.76-15.16,9.11-15.16,17.5"/>
      </g>
    </g>
  </g>
</svg>