<?xml version="1.0" encoding="UTF-8"?>
<svg id="Layer_2" data-name="Layer 2" xmlns="http://www.w3.org/2000/svg" viewBox="0 0 97.29 97.33">
  <defs>
    <style>
      .cls-1 {
        fill: none;
        stroke: #f7a833;
        stroke-linecap: round;
        stroke-linejoin: round;
        stroke-width: 2.76px;
      }
    </style>
  </defs>
  <g id="Camada_2" data-name="Camada 2">
    <g>
      <path class="cls-1" d="m72.58,56.49C94.24,34.83,95.91,1.38,95.91,1.38c0,0-33.45,1.67-55.11,23.33-9.31,9.31-14.91,20.79-18.29,30.87l19.21,19.21c10.07-3.38,21.56-8.98,30.87-18.29Z"/>
      <line class="cls-1" x1="22.41" y1="55.47" x2="41.72" y2="74.78"/>
      <line class="cls-1" x1="22.41" y1="55.47" x2="41.72" y2="74.78"/>
      <line class="cls-1" x1="17.27" y1="61.4" x2="35.93" y2="80.07"/>
      <path class="cls-1" d="m22.41,55.47L2.06,46.24c13.54-13.54,26.9-21.64,35.97-18.77"/>
      <path class="cls-1" d="m41.72,74.78l9.23,20.35c13.54-13.54,21.64-26.9,18.77-35.97"/>
      <line class="cls-1" x1="71.28" y1="6.59" x2="90.6" y2="25.91"/>
      <path class="cls-1" d="m66.74,41.79c-3.11,3.11-8.14,3.11-11.25,0s-3.11-8.14,0-11.25c3.11-3.11,8.14-3.11,11.25,0,3.11,3.11,3.11,8.14,0,11.25Z"/>
      <line class="cls-1" x1="14.5" y1="69.7" x2="1.38" y2="82.82"/>
      <line class="cls-1" x1="27.63" y1="82.83" x2="14.51" y2="95.96"/>
      <line class="cls-1" x1="21.04" y1="76.24" x2="13.09" y2="84.2"/>
    </g>
  </g>
</svg>