<?xml version="1.0" encoding="UTF-8"?>
<svg id="Layer_2" data-name="Layer 2" xmlns="http://www.w3.org/2000/svg" viewBox="0 0 15.68 16">
  <defs>
    <style>
      .cls-1 {
        fill: #f4af38;
      }
    </style>
  </defs>
  <g id="Camada_1" data-name="Camada 1">
    <g>
      <path class="cls-1" d="m8.08,16c2.61,0,4.56-.28,7.59-1.22,0-.11,0-.23,0-.39-.01-2.72-1.63-4.37-4.45-5.31-.82.46-2.39.85-3.4.85s-2.57-.39-3.4-.85c-2.82.94-4.45,2.59-4.45,5.31,0,.17,0,.31.02.42,2.92.91,5.29,1.19,8.07,1.19Z"/>
      <path class="cls-1" d="m7.84,0C5.49,0,3.58,1.94,3.58,4.32s1.91,4.32,4.26,4.32,4.26-1.94,4.26-4.32S10.19,0,7.84,0Z"/>
    </g>
  </g>
</svg>