<?xml version="1.0" encoding="UTF-8"?>
<svg id="Camada_2" data-name="Camada 2" xmlns="http://www.w3.org/2000/svg" viewBox="0 0 104.07 87.65">
  <defs>
    <style>
      .cls-1 {
        fill: none;
        stroke: #f7a833;
        stroke-linecap: round;
        stroke-linejoin: round;
        stroke-width: 2.76px;
      }
    </style>
  </defs>
  <g id="Camada_2-2" data-name="Camada 2">
    <g>
      <g>
        <path class="cls-1" d="m22.96,75.53c15.13,5.09,29.36,11.26,38.01,10.71,8.4-.53,20.84-6.77,38.62-11.82,1.84-.52,3.11-2.22,3.11-4.13h0c0-3.52-2.98-6.31-6.5-6.08-9.49.6-23.71,3.5-31.33,3.71"/>
        <path class="cls-1" d="m22.96,53.71h32.02c3.67,0,7.33,1.04,10.25,3.26,2.91,2.2,4.41,4.95,3.78,7.72-.43,1.91-2.19,3.22-4.15,3.22h-18.34"/>
        <rect class="cls-1" x="1.38" y="49.54" width="21.58" height="32.98" rx="2.64" ry="2.64" transform="translate(24.34 132.06) rotate(180)"/>
      </g>
      <g>
        <g>
          <path class="cls-1" d="m101.05,18.69l-1.11-2.68c-.3-.73-1.11-1.12-1.87-.91l-1.69.47c-1.27.35-2.62,0-3.55-.93l-.24-.24c-.93-.93-1.29-2.29-.93-3.55l.47-1.69c.21-.76-.18-1.57-.91-1.87l-2.68-1.11c-.73-.3-1.58-.01-1.96.68l-.79,1.4c-.69,1.22-1.99,1.98-3.39,1.98h-.19c-1.31,0-2.53-.71-3.17-1.85l-.86-1.53c-.39-.69-1.23-.98-1.96-.68l-2.68,1.11c-.73.3-1.12,1.11-.91,1.87l.43,1.55c.38,1.35,0,2.8-.99,3.79l-.03.03c-.99.99-2.45,1.38-3.8,1l-1.55-.43c-.76-.21-1.57.18-1.87.91l-1.11,2.68c-.3.73-.01,1.58.68,1.96l1.4.79c1.23.69,1.98,1.99,1.98,3.39v.04c0,1.4-.76,2.69-1.98,3.38l-1.4.79c-.69.39-.98,1.23-.68,1.96l1.11,2.68c.3.73,1.11,1.12,1.87.91l1.55-.43c1.35-.38,2.8,0,3.79.99l.03.03c.99.99,1.37,2.45,1,3.8l-.43,1.55c-.21.76.18,1.57.91,1.87l2.68,1.11c.73.3,1.58.01,1.96-.68l.79-1.4c.69-1.22,1.99-1.98,3.39-1.98h.04c1.4,0,2.69.76,3.38,1.98l.79,1.4c.39.69,1.23.98,1.96.68l2.68-1.11c.73-.3,1.12-1.11.91-1.87l-.43-1.55c-.38-1.35,0-2.8.99-3.79l.14-.14c.93-.93,2.29-1.29,3.55-.93l1.69.47c.76.21,1.57-.18,1.87-.91l1.11-2.68c.3-.73.01-1.58-.68-1.96l-1.4-.79c-1.22-.69-1.98-1.99-1.98-3.39v-.04c0-1.4.76-2.69,1.98-3.38l1.4-.79c.69-.39.98-1.23.68-1.96Z"/>
          <path class="cls-1" d="m90.74,21.39c1.91,4.61-.28,9.9-4.89,11.81-4.61,1.91-9.9-.28-11.81-4.89-1.91-4.61.28-9.9,4.89-11.81,4.61-1.91,9.9.28,11.81,4.89Z"/>
        </g>
        <g>
          <path class="cls-1" d="m57.64,11.58l-1.06-2.24c-.29-.61-.99-.91-1.63-.7l-1.42.47c-1.06.36-2.24.11-3.07-.64l-.21-.19c-.83-.75-1.19-1.9-.95-2.99l.33-1.46c.15-.66-.22-1.33-.86-1.55l-2.33-.83c-.64-.23-1.34.06-1.65.66l-.61,1.23c-.54,1.07-1.61,1.78-2.81,1.84h-.16c-1.12.06-2.18-.49-2.78-1.44l-.8-1.27c-.36-.57-1.09-.78-1.7-.49l-2.24,1.06c-.61.29-.91.99-.7,1.63l.44,1.31c.38,1.13.12,2.39-.69,3.27l-.03.03c-.81.89-2.03,1.28-3.2,1.01l-1.34-.3c-.66-.15-1.33.22-1.55.86l-.83,2.33c-.23.64.06,1.34.66,1.65l1.23.61c1.07.54,1.78,1.61,1.84,2.81v.04c.06,1.19-.53,2.33-1.54,2.97l-1.16.73c-.57.36-.78,1.09-.49,1.7l1.06,2.24c.29.61.99.91,1.63.7l1.31-.44c1.13-.38,2.39-.12,3.27.69l.03.03c.89.81,1.28,2.03,1.01,3.2l-.3,1.34c-.15.66.22,1.33.86,1.55l2.33.83c.64.23,1.34-.06,1.65-.66l.61-1.23c.54-1.07,1.61-1.77,2.81-1.83h.04c1.19-.06,2.33.53,2.97,1.54l.73,1.16c.36.57,1.09.78,1.7.49l2.24-1.06c.61-.29.91-.99.7-1.63l-.44-1.3c-.38-1.13-.12-2.39.69-3.27l.11-.12c.75-.83,1.9-1.19,2.99-.95l1.46.33c.66.15,1.33-.22,1.55-.86l.83-2.33c.23-.64-.06-1.34-.66-1.65l-1.23-.61c-1.07-.54-1.78-1.61-1.84-2.81v-.04c-.06-1.19.53-2.33,1.54-2.97l1.16-.73c.57-.36.78-1.09.49-1.7Z"/>
          <path class="cls-1" d="m48.96,14.33c1.83,3.85.18,8.45-3.67,10.28-3.85,1.83-8.45.18-10.28-3.67-1.83-3.85-.18-8.45,3.67-10.28s8.45-.18,10.28,3.67Z"/>
        </g>
      </g>
    </g>
  </g>
</svg>