<?xml version="1.0" encoding="UTF-8"?>
<svg id="Layer_2" data-name="Layer 2" xmlns="http://www.w3.org/2000/svg" viewBox="0 0 86.76 86.76">
  <defs>
    <style>
      .cls-1 {
        fill: none;
        stroke: #f7a833;
        stroke-linecap: round;
        stroke-linejoin: round;
        stroke-width: 2.76px;
      }
    </style>
  </defs>
  <g id="Camada_2" data-name="Camada 2">
    <g id="contract">
      <path class="cls-1" d="m17.64,69.12c-.91-6.02,7.99-5.41,9.48-9.48,0,0,1.44,6.12,0,9.48.73-2.15,5.61-4.58,6.77-4.06,1.29.52-1.95,6.39,10.84,4.06"/>
      <g>
        <line class="cls-1" x1="12.22" y1="18.99" x2="24.41" y2="18.99"/>
        <line class="cls-1" x1="12.22" y1="29.83" x2="50.15" y2="29.83"/>
        <line class="cls-1" x1="12.22" y1="37.96" x2="50.15" y2="37.96"/>
        <line class="cls-1" x1="12.22" y1="46.09" x2="33.89" y2="46.09"/>
      </g>
      <g>
        <path class="cls-1" d="m85.38,47.44h-13.55v-23.03c0-3.74,3.03-6.77,6.77-6.77h0c3.74,0,6.77,3.03,6.77,6.77v23.03Z"/>
        <polyline class="cls-1" points="84.02 47.44 84.02 73.18 79.96 82.67 77.25 82.67 73.18 73.18 73.18 52.86"/>
        <line class="cls-1" x1="78.6" y1="73.18" x2="82.67" y2="73.18"/>
        <line class="cls-1" x1="78.6" y1="82.67" x2="78.6" y2="85.38"/>
        <line class="cls-1" x1="78.6" y1="17.64" x2="78.6" y2="37.96"/>
      </g>
      <g>
        <path class="cls-1" d="m4.09,85.38h54.19c1.5,0,2.71-1.21,2.71-2.71V18.99L43.38,1.38H4.09c-1.5,0-2.71,1.21-2.71,2.71v78.58c0,1.5,1.21,2.71,2.71,2.71Z"/>
        <path class="cls-1" d="m59.64,18.99h-14.9c-.75,0-1.35-.61-1.35-1.35v-5.42"/>
      </g>
    </g>
  </g>
</svg>