<?xml version="1.0" encoding="UTF-8"?>
<svg id="Layer_2" data-name="Layer 2" xmlns="http://www.w3.org/2000/svg" viewBox="0 0 96.65 99.78">
  <defs>
    <style>
      .cls-1 {
        fill: none;
        stroke: #f7a833;
        stroke-linecap: round;
        stroke-linejoin: round;
        stroke-width: 2.76px;
      }
    </style>
  </defs>
  <g id="Camada_2" data-name="Camada 2">
    <g id="deed_of_sale" data-name="deed of sale">
      <g>
        <polyline class="cls-1" points="56.15 84.32 54.58 98.4 60.84 95.27 67.1 98.4 65.54 84.32"/>
        <path class="cls-1" d="m53.02,68.67h0c0-.86.7-1.57,1.56-1.57h0c1.93,0,3.79-.77,5.15-2.13h0c.61-.61,1.6-.61,2.21,0h0c1.37,1.37,3.22,2.13,5.15,2.13h0c.86,0,1.56.7,1.56,1.56h0c0,1.93.77,3.79,2.13,5.15h0c.61.61.61,1.6,0,2.21h0c-1.37,1.37-2.13,3.22-2.13,5.15h0c0,.86-.7,1.57-1.56,1.57h0c-1.93,0-3.79.77-5.15,2.13h0c-.61.61-1.6.61-2.21,0h0c-1.37-1.37-3.22-2.13-5.15-2.13h0c-.86,0-1.56-.7-1.56-1.56h0c0-1.93-.77-3.79-2.13-5.15h0c-.61-.61-.61-1.6,0-2.21h0c1.37-1.37,2.13-3.22,2.13-5.15Z"/>
      </g>
      <g>
        <g>
          <polyline class="cls-1" points="29.55 17.03 29.55 32.68 17.03 32.68 17.03 29.55"/>
          <polyline class="cls-1" points="13.9 24.85 23.29 17.03 32.68 24.85"/>
        </g>
        <line class="cls-1" x1="42.07" y1="32.68" x2="67.1" y2="32.68"/>
        <line class="cls-1" x1="13.9" y1="43.63" x2="67.1" y2="43.63"/>
        <line class="cls-1" x1="13.9" y1="53.02" x2="42.07" y2="53.02"/>
        <path class="cls-1" d="m17.03,78.06c-.78-5.21,6.53-5.87,7.82-9.39,0,0,2.81,6.49,1.56,9.39.63-1.86,5.25-3.58,6.26-3.13,1.12.45-1.67,5.14,9.39,3.13"/>
      </g>
      <g>
        <path class="cls-1" d="m85.88,1.38H10.77C5.58,1.38,1.38,5.58,1.38,10.77v81.37h43.82"/>
        <path class="cls-1" d="m89.01,13.9h6.26v-4.69c0-4.3-3.52-7.82-7.82-7.82h0c-4.3,0-7.82,3.52-7.82,7.82v82.94h-3.13"/>
      </g>
    </g>
  </g>
</svg>