<?xml version="1.0" encoding="UTF-8"?>
<svg id="Layer_2" data-name="Layer 2" xmlns="http://www.w3.org/2000/svg" viewBox="0 0 19.7 19.7">
  <defs>
    <style>
      .cls-1 {
        fill: #fff;
      }
    </style>
  </defs>
  <g id="Camada_2" data-name="Camada 2">
    <path class="cls-1" d="m16.71,0H2.99C1.34,0,0,1.34,0,2.99v13.72c0,1.65,1.34,2.99,2.99,2.99h13.72c1.65,0,2.99-1.34,2.99-2.99V2.99c0-1.65-1.34-2.99-2.99-2.99Zm-1.19,6.13h-1.31c-1.03,0-1.23.49-1.23,1.2v1.58h2.45l-.32,2.47h-2.13v6.34h-2.55v-6.34h-2.13v-2.47h2.13v-1.82c0-2.11,1.29-3.27,3.18-3.27.9,0,1.68.07,1.91.1v2.21Z"/>
  </g>
</svg>