<?xml version="1.0" encoding="UTF-8"?>
<svg id="Camada_2" data-name="Camada 2" xmlns="http://www.w3.org/2000/svg" viewBox="0 0 92.76 92.76">
  <defs>
    <style>
      .cls-1 {
        fill: none;
        stroke: #f7a833;
        stroke-linecap: round;
        stroke-linejoin: round;
        stroke-width: 2.76px;
      }

      .cls-2 {
        fill: #f7a833;
      }
    </style>
  </defs>
  <g id="Camada_2-2" data-name="Camada 2">
    <path class="cls-2" d="m37.99,38.79c0,1.77-1.44,3.21-3.21,3.21s-3.21-1.44-3.21-3.21,1.44-3.21,3.21-3.21,3.21,1.44,3.21,3.21Z"/>
    <path class="cls-2" d="m60.72,38.79c0,1.77-1.44,3.21-3.21,3.21s-3.21-1.44-3.21-3.21,1.44-3.21,3.21-3.21,3.21,1.44,3.21,3.21Z"/>
    <g>
      <path class="cls-1" d="m76.38,31.38c8.28,0,15,6.72,15,15s-6.72,15-15,15v-30Z"/>
      <path class="cls-1" d="m16.38,31.38c-8.28,0-15,6.72-15,15s6.72,15,15,15v-30Z"/>
      <path class="cls-1" d="m16.38,31.38C16.38,14.81,29.81,1.38,46.38,1.38s30,13.43,30,30"/>
      <path class="cls-1" d="m53.7,84.06c12.53,0,22.68-10.15,22.68-22.68"/>
      <path class="cls-1" d="m53.7,84.06c0,4.04-3.28,7.32-7.32,7.32s-7.32-3.28-7.32-7.32,3.28-7.32,7.32-7.32,7.32,3.28,7.32,7.32Z"/>
      <path class="cls-1" d="m23.95,31.38c0-12.39,10.04-22.43,22.43-22.43s22.43,10.04,22.43,22.43"/>
      <path class="cls-1" d="m23.95,31.38c0-12.39,10.04-22.43,22.43-22.43s22.43,10.04,22.43,22.43"/>
      <path class="cls-1" d="m59.81,56.93c-.74,1.74-1.81,3.31-3.12,4.63-1.32,1.32-2.89,2.39-4.63,3.12-1.74.74-3.66,1.15-5.67,1.15s-3.93-.41-5.67-1.15c-1.74-.74-3.31-1.81-4.63-3.12-1.32-1.32-2.39-2.89-3.12-4.63"/>
    </g>
  </g>
</svg>