<?xml version="1.0" encoding="UTF-8"?>
<svg id="Layer_2" data-name="Layer 2" xmlns="http://www.w3.org/2000/svg" viewBox="0 0 139.5 74.65">
  <defs>
    <style>
      .cls-1 {
        fill: none;
        stroke: #f7a833;
        stroke-linecap: round;
        stroke-linejoin: round;
        stroke-width: 2.37px;
      }
    </style>
  </defs>
  <g id="Camada_2" data-name="Camada 2">
    <g>
      <path class="cls-1" d="m72.59,2.95l9.24,18.72c.46.94,1.35,1.58,2.39,1.73l20.66,3c2.6.38,3.64,3.57,1.76,5.4l-14.95,14.57c-.75.73-1.09,1.78-.91,2.8l3.53,20.57c.44,2.59-2.27,4.56-4.6,3.34l-18.47-9.71c-.92-.49-2.03-.49-2.95,0l-18.47,9.71c-2.32,1.22-5.04-.75-4.6-3.34l3.53-20.57c.18-1.03-.16-2.08-.91-2.8l-14.95-14.57c-1.88-1.83-.84-5.03,1.76-5.4l20.66-3c1.03-.15,1.92-.8,2.39-1.73l9.24-18.72c1.16-2.36,4.52-2.36,5.68,0Z"/>
      <path class="cls-1" d="m97.95,19.1l5.53-11.21c1-2.02,3.87-2.02,4.87,0l7.91,16.03c.4.8,1.16,1.36,2.04,1.48l17.69,2.57c2.23.32,3.11,3.06,1.5,4.63l-12.8,12.48c-.64.62-.93,1.52-.78,2.4l3.02,17.62c.38,2.22-1.95,3.91-3.94,2.86l-15.82-8.32c-.79-.42-1.73-.42-2.53,0l-5.63,2.96"/>
      <path class="cls-1" d="m41.55,19.1l-5.53-11.21c-1-2.02-3.87-2.02-4.87,0l-7.91,16.03c-.4.8-1.16,1.36-2.04,1.48l-17.69,2.57c-2.23.32-3.11,3.06-1.5,4.63l12.8,12.48c.64.62.93,1.52.78,2.4l-3.02,17.62c-.38,2.22,1.95,3.91,3.94,2.86l15.82-8.32c.79-.42,1.73-.42,2.53,0l5.63,2.96"/>
    </g>
  </g>
</svg>