<?xml version="1.0" encoding="UTF-8"?>
<svg id="Layer_2" data-name="Layer 2" xmlns="http://www.w3.org/2000/svg" viewBox="0 0 85.96 93.8">
  <defs>
    <style>
      .cls-1 {
        fill: none;
        stroke: #f7a833;
        stroke-linecap: round;
        stroke-linejoin: round;
        stroke-width: 2.76px;
      }
    </style>
  </defs>
  <g id="Camada_2" data-name="Camada 2">
    <g>
      <path class="cls-1" d="m49.61,85.03l-3.18-12.6c-.15-.82-.07-1.65.21-2.43l3.46-9.52"/>
      <path class="cls-1" d="m35.86,60.48l3.46,9.52c.28.78.36,1.62.21,2.43l-3.13,12.38"/>
      <g>
        <path class="cls-1" d="m63.17,32.7c0,3.06-2.34,5.54-5.23,5.54-2.36,10.16-8.16,17.36-14.96,17.36s-12.6-7.2-14.96-17.36c-2.89,0-5.23-2.48-5.23-5.54"/>
        <path class="cls-1" d="m50.56,6.17c6.42,2.77,11.08,8.97,11.82,16.51"/>
        <path class="cls-1" d="m23.57,22.88c.72-7.19,5-13.26,10.97-16.26"/>
        <polyline class="cls-1" points="38.47 16.24 38.47 1.38 46.57 1.38 46.57 16.24"/>
        <line class="cls-1" x1="17.05" y1="28.32" x2="68.91" y2="28.32"/>
      </g>
      <g>
        <path class="cls-1" d="m52.94,92.43l6.33-34.53,17.53,3.6c4.54.93,7.79,4.93,7.79,9.56v21.37"/>
        <path class="cls-1" d="m33.02,92.43l-6.33-34.53-17.53,3.6c-4.54.93-7.79,4.93-7.79,9.56v21.37"/>
      </g>
    </g>
  </g>
</svg>