<?xml version="1.0" encoding="UTF-8"?>
<svg id="Layer_2" data-name="Layer 2" xmlns="http://www.w3.org/2000/svg" viewBox="0 0 19.54 19.54">
  <defs>
    <style>
      .cls-1 {
        fill: #fff;
      }
    </style>
  </defs>
  <g id="Camada_2" data-name="Camada 2">
    <path class="cls-1" d="m15.76,0H3.78C1.69,0,0,1.69,0,3.78v11.99c0,2.08,1.69,3.78,3.78,3.78h11.99c2.08,0,3.78-1.69,3.78-3.78V3.78c0-2.08-1.69-3.78-3.78-3.78Zm1.08,2.25h.43s0,.43,0,.43v2.88h-3.3s-.01-3.3-.01-3.3h2.88ZM6.98,7.77c.63-.87,1.64-1.43,2.79-1.43s2.16.57,2.79,1.43c.08.1.14.21.21.33.28.5.44,1.07.44,1.68,0,1.9-1.54,3.44-3.44,3.44s-3.44-1.54-3.44-3.44c0-.61.16-1.18.44-1.68.06-.11.13-.22.21-.33Zm10.66,8c0,1.03-.84,1.87-1.87,1.87H3.78c-1.03,0-1.87-.84-1.87-1.87v-8h2.92c-.07.18-.14.36-.19.55-.13.46-.2.95-.2,1.45,0,2.95,2.4,5.34,5.34,5.34s5.34-2.4,5.34-5.34c0-.5-.07-.99-.21-1.45-.05-.19-.12-.37-.19-.55h2.92v8Z"/>
  </g>
</svg>