<svg width="224" height="48" viewBox="0 0 224 48" fill="none" xmlns="http://www.w3.org/2000/svg">
    <g clip-path="url(#clip0_31_622)">
        <path
            d="M43.3471 0H4.95006C2.29827 0 0.14856 2.14971 0.14856 4.80151V43.1985C0.14856 45.8503 2.29827 48 4.95006 48H43.3471C45.9989 48 48.1486 45.8503 48.1486 43.1985V4.80151C48.1486 2.14971 45.9989 0 43.3471 0Z"
            fill="white" />
        <path
            d="M21.3113 20.5268V19.5221C21.3048 18.8609 21.3387 18.1999 21.4129 17.5428C21.4675 17.0482 21.6211 16.5695 21.8645 16.1355C22.1319 15.7 22.4853 15.3236 22.903 15.0292C23.4827 14.6229 24.0943 14.2642 24.7318 13.9567L25.9397 13.3885C26.2139 13.2619 26.4815 13.1212 26.7412 12.9671C26.9845 12.8281 27.2053 12.653 27.396 12.4478C27.5956 12.2325 27.7447 11.9754 27.8325 11.6952C27.9437 11.3193 27.9945 10.9281 27.983 10.5362C27.983 9.64315 27.7648 9.07996 27.3283 8.84666C26.6895 8.57066 25.9945 8.44946 25.3 8.49294C24.8748 8.49294 24.4797 8.49294 24.1109 8.54186C23.7771 8.56552 23.4517 8.65775 23.1552 8.81279C22.889 8.95415 22.6685 9.16815 22.5192 9.42991C22.3463 9.77202 22.2659 10.1534 22.2859 10.5362V11.5785H16.5173V10.5249C16.488 9.35223 16.7113 8.18694 17.1721 7.10818C17.5521 6.29475 18.165 5.61243 18.9331 5.14769C19.7758 4.66042 20.7119 4.35653 21.6801 4.25587C22.8816 4.11626 24.0905 4.04965 25.3 4.05644C26.4595 4.05025 27.6183 4.11686 28.7695 4.25587C29.7125 4.35786 30.6225 4.66205 31.4374 5.14769C32.1871 5.62925 32.7776 6.32185 33.1345 7.13828C33.5804 8.22009 33.7859 9.38594 33.7365 10.555C33.7552 11.4621 33.6719 12.3684 33.4882 13.2568C33.3443 13.9085 33.0577 14.5203 32.649 15.048C32.2314 15.5634 31.7208 15.9961 31.1439 16.3236C30.4108 16.7377 29.6572 17.1145 28.8861 17.4525C28.3509 17.6486 27.8607 17.9506 27.4449 18.3405C27.1754 18.676 27.0412 19.1002 27.0686 19.5296V20.5343L21.3113 20.5268Z"
            fill="#F5BA06" />
        <path
            d="M42.38 40.4779C42.1211 35.9861 40.2066 31.7497 37.0065 28.587C36.9248 28.5054 36.8694 28.4013 36.8472 28.288C36.8251 28.1747 36.8373 28.0574 36.8823 27.9511C37.0553 27.5159 37.0803 27.036 36.9535 26.5853C36.8267 26.1345 36.5552 25.738 36.1807 25.4568C35.8063 25.1757 35.3497 25.0255 34.8815 25.0295C34.4133 25.0335 33.9594 25.1914 33.5898 25.4788C33.5001 25.5533 33.3901 25.5993 33.2741 25.6107C33.158 25.6221 33.0413 25.5984 32.9388 25.5428C31.1259 24.5443 29.156 23.8622 27.1138 23.5259C27.0046 23.5259 26.8993 23.4882 26.7902 23.4769C26.6726 23.456 26.5646 23.3986 26.4815 23.3128C26.3984 23.227 26.3444 23.1172 26.3273 22.9991L26.2934 22.8786C26.2392 22.6054 26.1263 22.3471 25.9626 22.1217C25.7989 21.8963 25.5882 21.709 25.3452 21.5729C25.0494 21.3943 24.7152 21.2891 24.3705 21.2661C24.0257 21.2431 23.6805 21.303 23.3637 21.4408C23.0468 21.5786 22.7676 21.7902 22.5493 22.0581C22.331 22.3259 22.1801 22.6421 22.1091 22.9802C22.0879 23.1028 22.0285 23.2155 21.9392 23.302C21.8499 23.3886 21.7355 23.4446 21.6123 23.4619C19.3376 23.778 17.1437 24.5238 15.1476 25.6595C15.0428 25.7179 14.922 25.7413 14.8029 25.7264C14.6838 25.7115 14.5726 25.6591 14.4853 25.5767C14.2547 25.3657 13.9802 25.2084 13.6816 25.116C13.383 25.0236 13.0676 24.9985 12.7582 25.0423C12.2897 25.1114 11.8572 25.3333 11.5278 25.6736C11.1984 26.0138 10.9907 26.4533 10.9369 26.9238C10.892 27.346 10.9746 27.7719 11.174 28.1468C11.2304 28.2466 11.2532 28.3621 11.239 28.4759C11.2247 28.5898 11.1742 28.696 11.0949 28.7789C8.01519 31.9231 6.17849 36.0764 5.92467 40.4704C5.90974 40.7839 5.79835 41.0852 5.60572 41.3331C5.41309 41.5809 5.14863 41.7632 4.84847 41.8551L3.03097 42.4233C2.79461 42.4964 2.58784 42.6432 2.44091 42.8423C2.29399 43.0414 2.21462 43.2822 2.21442 43.5296V43.7516H46.0865V43.4318C46.0865 43.2129 46.0164 42.9998 45.8863 42.8237C45.7563 42.6476 45.5732 42.5178 45.364 42.4534L43.4637 41.8702C43.163 41.7758 42.8981 41.592 42.7045 41.3432C42.5109 41.0945 42.3977 40.7926 42.38 40.4779V40.4779Z"
            fill="#0064B0" />
    </g>
    <path
        d="M79.0974 17.2766V17.7726C79.0974 18.239 79.0974 18.698 79.0974 19.1348C79.0816 19.5623 79.0196 19.9868 78.9123 20.4008C78.8078 20.8057 78.6537 21.1961 78.4533 21.5632C78.2234 21.9625 77.9194 22.3143 77.5575 22.5996C77.1963 22.9115 76.7861 23.1616 76.3434 23.34C75.9156 23.5105 75.4716 23.637 75.0182 23.7175C74.5587 23.8 74.0931 23.8445 73.6263 23.8508H72.1456C70.9981 23.8508 69.9246 23.8064 68.9548 23.7101C68.0663 23.6546 67.2013 23.4017 66.4228 22.9698C65.6825 22.5218 65.1002 21.8542 64.7571 21.0597C64.3064 19.9056 64.1021 18.6699 64.1574 17.4321V13.0419C64.1129 11.8943 64.2966 10.7493 64.6978 9.67332C65.0154 8.87812 65.5681 8.19883 66.2822 7.72624C67.0483 7.24714 67.91 6.94139 68.8067 6.83042C69.9133 6.68086 71.029 6.60913 72.1456 6.61573C73.1596 6.60774 74.1732 6.65965 75.181 6.77119C75.9417 6.85026 76.6738 7.1036 77.3206 7.51153C77.91 7.9255 78.3593 8.50911 78.6088 9.1847C78.9426 10.1533 79.1006 11.1737 79.0752 12.1979V12.8568H74.4111V12.1979C74.385 11.8821 74.2889 11.5761 74.1298 11.3021C73.9865 11.0904 73.7863 10.9236 73.5523 10.8208C73.2868 10.7061 73.0041 10.636 72.7157 10.6136C72.3949 10.5839 72.0395 10.5691 71.6496 10.5691C71.1342 10.554 70.619 10.6063 70.1171 10.7246C69.7859 10.8072 69.49 10.9941 69.2731 11.2576C69.0576 11.5496 68.9269 11.8955 68.8956 12.2571C68.8403 12.7635 68.8156 13.2728 68.8215 13.7822V16.4326C68.8215 17.0619 68.8215 17.6023 68.8734 18.0465C68.8929 18.4323 69.0101 18.8068 69.2139 19.1348C69.4233 19.4269 69.7222 19.6426 70.0653 19.7493C70.5803 19.8949 71.1147 19.9598 71.6496 19.9418C72.0576 19.9435 72.4653 19.9238 72.8712 19.8826C73.1772 19.8575 73.4746 19.7693 73.7448 19.6235C73.9862 19.4779 74.1694 19.2528 74.263 18.9868C74.3906 18.608 74.4483 18.2091 74.4333 17.8097V17.3136L79.0974 17.2766Z"
        fill="white" />
    <path
        d="M85.1164 20.7858L84.2798 23.7028H79.5713L84.6648 6.72681H91.5426L96.7249 23.7028H92.1052L91.1872 20.7858H85.1164ZM88.2258 10.1176H88.1814L86.0937 17.5209H90.2988L88.2258 10.1176Z"
        fill="white" />
    <path
        d="M97.6135 6.72679H106.216C107.244 6.70886 108.27 6.82837 109.266 7.08215C110.059 7.27562 110.792 7.66222 111.399 8.20747C111.979 8.77304 112.406 9.47586 112.642 10.2508C112.937 11.245 113.074 12.2792 113.05 13.3158V16.8694C113.064 17.8846 112.962 18.898 112.746 19.89C112.574 20.6713 112.222 21.4015 111.717 22.0222C111.198 22.6061 110.534 23.0428 109.792 23.2882C108.835 23.5895 107.834 23.7296 106.831 23.7028H97.6135V6.72679ZM102.137 19.7419H106.098C106.433 19.7824 106.772 19.7354 107.084 19.6057C107.395 19.476 107.667 19.2678 107.875 19.0016C108.249 18.3585 108.427 17.6198 108.385 16.8768V13.3232C108.396 12.8752 108.351 12.4277 108.252 11.9906C108.185 11.6846 108.04 11.4013 107.83 11.1688C107.629 10.9655 107.371 10.8285 107.09 10.7764C106.754 10.7037 106.412 10.6689 106.068 10.6728H102.107L102.137 19.7419Z"
        fill="white" />
    <path
        d="M119.957 13.5453H127.197V16.6917H119.957V19.9937H127.834V23.6953H115.426V6.72679H127.671V10.4285H119.957V13.5453ZM125.746 3.96533L125.184 5.25351L121.608 3.85427L118.165 5.25351L117.551 3.96533L121.608 1.5L125.746 3.96533Z"
        fill="white" />
    <path
        d="M146.076 23.8434C145.015 23.8489 143.956 23.7697 142.907 23.6065C142.021 23.4757 141.172 23.1631 140.412 22.6885C139.708 22.2204 139.148 21.5637 138.798 20.7932C138.375 19.7899 138.178 18.7054 138.221 17.6172V12.8198C138.176 11.729 138.374 10.6419 138.798 9.63632C139.15 8.8692 139.709 8.21543 140.412 7.74846C141.17 7.2707 142.02 6.95791 142.907 6.83043C145.008 6.51453 147.144 6.51453 149.245 6.83043C150.129 6.95912 150.976 7.27187 151.732 7.74846C152.439 8.21288 153.001 8.86718 153.354 9.63632C153.778 10.6419 153.976 11.729 153.931 12.8198V17.6172C153.974 18.7054 153.777 19.7899 153.354 20.7932C153.005 21.5669 152.443 22.2245 151.732 22.6885C150.975 23.162 150.128 23.4745 149.245 23.6065C148.196 23.7694 147.137 23.8487 146.076 23.8434V23.8434ZM146.076 19.9048C146.571 19.908 147.065 19.8808 147.557 19.8234C147.911 19.7923 148.251 19.6671 148.541 19.4606C148.806 19.2467 148.996 18.9535 149.082 18.624C149.207 18.1407 149.264 17.6424 149.252 17.1433V13.3158C149.266 12.8167 149.208 12.3182 149.082 11.8351C148.992 11.5094 148.803 11.2196 148.541 11.0059C148.249 10.8052 147.91 10.6829 147.557 10.6506C147.066 10.5896 146.571 10.5623 146.076 10.5691C145.581 10.5611 145.086 10.5883 144.595 10.6506C144.245 10.6841 143.908 10.8064 143.618 11.0059C143.354 11.2175 143.165 11.5081 143.078 11.8351C142.946 12.3175 142.881 12.8157 142.885 13.3158V17.1433C142.883 17.6433 142.947 18.1413 143.078 18.624C143.161 18.9548 143.351 19.2489 143.618 19.4606C143.906 19.6658 144.243 19.791 144.595 19.8234C145.087 19.8819 145.581 19.9091 146.076 19.9048V19.9048Z"
        fill="white" />
    <path
        d="M68.7666 36.1775H76.0145V39.3239H68.7666V42.6258H76.6438V46.3275H64.2432V29.3663H76.4884V33.068H68.7666V36.1775Z"
        fill="white" />
    <path
        d="M84.0472 46.3423H79.546V29.3663H87.1714L92.0355 42.4037H92.2206L91.9466 29.3663H96.4775V46.3423H88.7558L83.988 33.3049H83.8029L84.0472 46.3423Z"
        fill="white" />
    <path
        d="M109.559 34.6375C109.578 34.3174 109.492 33.9999 109.314 33.7329C109.136 33.4659 108.877 33.2637 108.575 33.1568C108.28 33.0503 107.97 32.9904 107.657 32.9792C107.326 32.9792 106.985 32.9792 106.635 32.9792C105.997 32.959 105.359 33.0263 104.74 33.179C104.342 33.2815 103.987 33.5069 103.725 33.8231C103.493 34.1658 103.358 34.5648 103.333 34.9781C103.289 35.4716 103.259 36.0491 103.244 36.7105V39.4719C103.226 40.0756 103.293 40.6788 103.444 41.2636C103.548 41.6471 103.761 41.992 104.059 42.2556C104.361 42.4981 104.725 42.6519 105.11 42.6998C105.615 42.7729 106.125 42.8076 106.635 42.8034C107.114 42.8115 107.592 42.7743 108.064 42.6924C108.398 42.632 108.709 42.4779 108.96 42.2482C109.19 42.0016 109.348 41.6971 109.419 41.3672C109.528 40.8815 109.575 40.384 109.559 39.8865H106.435V36.7697H114.149V39.731C114.175 40.8964 114.071 42.061 113.839 43.2032C113.678 43.9985 113.268 44.722 112.669 45.2688C112.007 45.7989 111.214 46.1392 110.374 46.2534C109.148 46.4331 107.91 46.5148 106.672 46.4978C105.499 46.5077 104.326 46.4335 103.163 46.2756C102.265 46.1629 101.405 45.8491 100.646 45.3576C99.9698 44.87 99.4543 44.1922 99.165 43.4105C98.7875 42.347 98.6142 41.2217 98.6542 40.0938V35.7036C98.6095 34.5523 98.7984 33.404 99.2094 32.3277C99.5392 31.5313 100.098 30.8509 100.816 30.3732C101.589 29.888 102.458 29.5772 103.363 29.4626C104.472 29.313 105.59 29.2413 106.709 29.2479C107.812 29.2479 108.826 29.2479 109.744 29.3441C110.569 29.3793 111.378 29.5834 112.121 29.9438C112.801 30.2941 113.348 30.8587 113.676 31.5503C114.087 32.5331 114.275 33.5954 114.223 34.6597L109.559 34.6375Z"
        fill="white" />
    <path
        d="M121.005 36.1775H128.245V39.3239H121.005V42.6258H128.882V46.3275H116.459V29.3663H128.704V33.068H121.005V36.1775Z"
        fill="white" />
    <path
        d="M136.271 46.3423H131.74V29.3663H139.395L144.259 42.4037H144.437L144.17 29.3663H148.693V46.3423H140.994L136.189 33.3049H136.012L136.271 46.3423Z"
        fill="white" />
    <path
        d="M166.484 46.3423H161.96V39.6792H156.038V46.3423H151.507V29.3663H156.038V35.748H161.96V29.3663H166.484V46.3423Z"
        fill="white" />
    <path
        d="M173.887 36.1775H181.135V39.3239H173.887V42.6258H181.765V46.3275H169.364V29.3663H181.609V33.068H173.887V36.1775Z"
        fill="white" />
    <path d="M189.19 46.3423H184.674V29.3663H189.205L189.19 46.3423Z" fill="white" />
    <path
        d="M191.885 29.3663H200.621C201.482 29.3676 202.342 29.4469 203.19 29.6032C203.846 29.7045 204.47 29.9581 205.011 30.3436C205.514 30.7451 205.891 31.2819 206.099 31.8909C206.364 32.7257 206.487 33.5992 206.462 34.4747C206.462 35.215 206.462 35.8147 206.418 36.3773C206.399 36.8896 206.278 37.393 206.062 37.858C205.844 38.3059 205.512 38.6888 205.1 38.9685C204.537 39.3341 203.908 39.5856 203.249 39.7089V39.8939C204.062 39.8825 204.851 40.1666 205.47 40.6935C205.758 40.9835 205.98 41.3317 206.122 41.7149C206.264 42.098 206.321 42.5071 206.292 42.9145V46.3349H201.776V43.9584C201.83 43.4139 201.688 42.868 201.376 42.4185C201.197 42.2059 200.968 42.0407 200.71 41.9374C200.451 41.8341 200.172 41.7959 199.895 41.8262H196.386V46.3349H191.863L191.885 29.3663ZM199.917 37.895C200.293 37.9108 200.668 37.8633 201.028 37.7544C201.263 37.6708 201.46 37.5052 201.583 37.288C201.706 37.0337 201.772 36.7558 201.776 36.4736C201.776 36.138 201.776 35.7308 201.776 35.252C201.78 34.9367 201.753 34.6216 201.694 34.3118C201.657 34.0887 201.556 33.8808 201.406 33.7121C201.248 33.5525 201.047 33.4419 200.828 33.3938C200.522 33.3282 200.209 33.2984 199.895 33.3049H196.386V37.895H199.917Z"
        fill="white" />
    <path
        d="M215.99 46.4755C214.929 46.481 213.87 46.4018 212.822 46.2386C211.937 46.1126 211.089 45.7996 210.334 45.3206C209.627 44.8562 209.065 44.2019 208.713 43.4328C208.288 42.4272 208.091 41.3401 208.135 40.2493V35.4519C208.092 34.3636 208.289 33.2792 208.713 32.2759C209.065 31.5046 209.627 30.8479 210.334 30.3806C211.09 29.9048 211.938 29.5921 212.822 29.4626C214.922 29.1467 217.058 29.1467 219.159 29.4626C220.043 29.5934 220.89 29.906 221.646 30.3806C222.354 30.8479 222.916 31.5046 223.268 32.2759C223.691 33.2792 223.889 34.3636 223.845 35.4519V40.2493C223.89 41.3401 223.693 42.4272 223.268 43.4328C222.915 44.2019 222.353 44.8562 221.646 45.3206C220.891 45.7984 220.043 46.1113 219.159 46.2386C218.111 46.4018 217.051 46.481 215.99 46.4755V46.4755ZM215.99 42.537C216.485 42.5438 216.98 42.5165 217.471 42.4555C217.824 42.4232 218.163 42.3009 218.456 42.1002C218.719 41.882 218.908 41.5869 218.996 41.2562C219.122 40.773 219.179 40.2746 219.166 39.7755V35.9479C219.18 35.4488 219.123 34.9502 218.996 34.4673C218.906 34.1415 218.717 33.8517 218.456 33.6381C218.164 33.4347 217.825 33.3098 217.471 33.2753C216.979 33.2179 216.485 33.1907 215.99 33.1939C215.495 33.1898 215.001 33.217 214.51 33.2753C214.158 33.3113 213.822 33.4362 213.532 33.6381C213.27 33.8517 213.082 34.1415 212.992 34.4673C212.863 34.9503 212.799 35.4481 212.799 35.9479V39.7311C212.799 40.2309 212.864 40.7285 212.992 41.2117C213.08 41.5425 213.269 41.8375 213.532 42.0557C213.823 42.2553 214.159 42.3776 214.51 42.4111C214.999 42.488 215.494 42.53 215.99 42.537V42.537Z"
        fill="white" />
    <defs>
        <clipPath id="clip0_31_622">
            <rect width="48" height="48" fill="white" transform="translate(0.14856)" />
        </clipPath>
    </defs>
</svg>