<?xml version="1.0" encoding="UTF-8"?>
<svg id="Layer_2" data-name="Layer 2" xmlns="http://www.w3.org/2000/svg" viewBox="0 0 85.76 85.76">
  <defs>
    <style>
      .cls-1 {
        fill: none;
        stroke: #f7a833;
        stroke-linecap: round;
        stroke-linejoin: round;
        stroke-width: 2.76px;
      }
    </style>
  </defs>
  <g id="Camada_1" data-name="Camada 1">
    <g id="tools">
      <g>
        <path class="cls-1" d="m14.77,18.22c-2.94,1.38-6.63.47-8.5-2.47L1.38,8.07,8.07,1.38l7.69,4.89c2.94,1.87,3.85,5.56,2.47,8.5"/>
        <line class="cls-1" x1="18.78" y1="13.43" x2="45.56" y2="40.2"/>
        <line class="cls-1" x1="13.43" y1="18.78" x2="40.2" y2="45.56"/>
        <path class="cls-1" d="m69.09,83.15l-22.88-22.88c-.82-.82-1.27-1.96-1.23-3.17l.13-3.95-5.83.19-2.82-2.82,14.06-14.06,2.82,2.82-.19,5.83,3.95-.13c1.2-.04,2.34.4,3.17,1.23l22.88,22.88c1.72,1.72,1.62,4.59-.21,6.42l-7.42,7.42c-1.83,1.83-4.71,1.93-6.42.21Z"/>
        <line class="cls-1" x1="54.93" y1="54.93" x2="73.67" y2="73.67"/>
      </g>
      <g>
        <path class="cls-1" d="m64.3,29.82c1.66.65,3.47,1,5.36,1,8.13,0,14.73-6.59,14.73-14.73,0-1.98-.4-3.86-1.1-5.59l-8.27,8.27h-3.79l-4.25-4.25v-3.79l8.27-8.27c-1.72-.71-3.61-1.1-5.59-1.1-8.13,0-14.73,6.59-14.73,14.73,0,1.89.36,3.7,1,5.36"/>
        <path class="cls-1" d="m21.46,55.93c-1.66-.65-3.47-1-5.36-1-8.13,0-14.73,6.59-14.73,14.73,0,1.98.4,3.86,1.1,5.59l8.27-8.27h3.79l4.25,4.25v3.79l-8.27,8.27c1.72.71,3.61,1.1,5.59,1.1,8.13,0,14.73-6.59,14.73-14.73,0-1.89-.36-3.7-1-5.36"/>
        <line class="cls-1" x1="44.22" y1="30.83" x2="54.93" y2="20.12"/>
        <line class="cls-1" x1="58.94" y1="37.52" x2="65.64" y2="30.83"/>
        <line class="cls-1" x1="30.83" y1="44.22" x2="20.12" y2="54.93"/>
        <line class="cls-1" x1="37.52" y1="58.94" x2="30.83" y2="65.64"/>
      </g>
    </g>
  </g>
</svg>