<?xml version="1.0" encoding="UTF-8"?>
<svg id="Layer_2" data-name="Layer 2" xmlns="http://www.w3.org/2000/svg" viewBox="0 0 74.53 74.53">
  <defs>
    <style>
      .cls-1 {
        fill: none;
        stroke: #f7a833;
        stroke-linecap: round;
        stroke-linejoin: round;
        stroke-width: 2.58px;
      }
    </style>
  </defs>
  <g id="Camada_2" data-name="Camada 2">
    <g>
      <g>
        <path class="cls-1" d="m61.24,27.71c5.8,11.8,3.79,26.46-6.02,36.27-12.34,12.34-32.34,12.34-44.68,0C-1.79,51.65-1.79,31.65,10.54,19.31c9.84-9.84,24.57-11.83,36.39-5.97"/>
        <path class="cls-1" d="m51.58,33.07c3.5,7.59,2.12,16.88-4.14,23.13-8.04,8.04-21.08,8.04-29.12,0-8.04-8.04-8.04-21.08,0-29.12,6.26-6.26,15.56-7.64,23.15-4.12"/>
        <path class="cls-1" d="m41.91,38.43c1.2,3.38.45,7.29-2.25,9.99-3.74,3.74-9.81,3.74-13.56,0-3.74-3.74-3.74-9.81,0-13.56,2.68-2.68,6.56-3.44,9.92-2.28"/>
      </g>
      <polygon class="cls-1" points="63.37 1.29 63.37 11.16 73.24 11.16 61.55 22.84 51.68 22.84 51.68 12.98 63.37 1.29"/>
      <line class="cls-1" x1="51.68" y1="22.84" x2="32.88" y2="41.65"/>
    </g>
  </g>
</svg>