<?xml version="1.0" encoding="UTF-8"?>
<svg id="Layer_2" data-name="Layer 2" xmlns="http://www.w3.org/2000/svg" viewBox="0 0 97.62 51.16">
  <defs>
    <style>
      .cls-1 {
        fill: none;
        stroke: #f7a833;
        stroke-linecap: round;
        stroke-linejoin: round;
        stroke-width: 2.37px;
      }
    </style>
  </defs>
  <g id="Camada_2" data-name="Camada 2">
    <path class="cls-1" d="m88.39,42.87c-.58-10.08-4.94-19.15-11.67-25.82-.37-.36-.46-.9-.27-1.38.34-.86.44-1.84.19-2.86-.41-1.7-1.82-3.04-3.53-3.39-1.44-.29-2.79.09-3.81.89-.41.32-.95.39-1.41.14-3.88-2.13-8.15-3.63-12.68-4.37-.23-.04-.46-.08-.7-.11-.54-.07-.9-.5-1.01-1.03-.02-.09-.05-.17-.07-.26-.25-1.19-.97-2.25-2.06-2.84-3.21-1.72-6.44.19-7.02,3.06-.11.55-.53.97-1.08,1.04-5.05.7-9.79,2.35-14.04,4.77-.47.27-1.03.18-1.43-.18-.97-.88-2.3-1.35-3.75-1.15-2.08.28-3.75,2.02-3.96,4.1-.1.96.1,1.87.52,2.65.24.46.19,1-.17,1.37-6.48,6.63-10.65,15.52-11.22,25.38-.08,1.4-1,2.6-2.34,3.01l-3.94,1.21c-1.05.32-1.77,1.3-1.77,2.4v.49h95.25v-.69c0-.98-.64-1.84-1.57-2.13l-4.13-1.27c-1.34-.41-2.27-1.62-2.35-3.02Z"/>
  </g>
</svg>