<?xml version="1.0" encoding="UTF-8"?>
<svg id="Layer_2" data-name="Layer 2" xmlns="http://www.w3.org/2000/svg" viewBox="0 0 89.97 89.96">
  <defs>
    <style>
      .cls-1 {
        fill: none;
        stroke: #f7a833;
        stroke-linecap: round;
        stroke-linejoin: round;
        stroke-width: 2.76px;
      }
    </style>
  </defs>
  <g id="Camada_2" data-name="Camada 2">
    <g>
      <path class="cls-1" d="m76.53,56.84l.78-1.88c.24-.69,1.01-1.39,1.72-1.54l8.29-2.31c.69-.15,1.26-.86,1.26-1.57v-9.09c0-.71-.57-1.41-1.26-1.57l-8.29-2.31c-.71-.16-1.49-.85-1.72-1.55l-2.42-5.86c-.32-.66-.26-1.69.13-2.31l4.24-7.49c.38-.6.28-1.5-.22-2l-6.44-6.44c-.5-.5-1.4-.6-2-.22l-7.49,4.24c-.62.39-1.65.45-2.31.12l-5.85-2.43c-.69-.24-1.39-1.01-1.54-1.72l-2.31-8.29c-.15-.69-.86-1.26-1.57-1.26h-9.09c-.71,0-1.41.57-1.57,1.26l-2.3,8.29c-.16.71-.85,1.49-1.54,1.72l-5.86,2.42c-.66.32-1.69.26-2.31-.13l-7.49-4.24c-.6-.38-1.5-.28-2,.22l-6.44,6.44c-.5.5-.6,1.4-.22,2l4.24,7.49c.39.62.45,1.65.12,2.31l-2.43,5.85c-.24.69-1.01,1.39-1.72,1.54l-8.29,2.31c-.69.15-1.26.86-1.26,1.57v9.09c0,.71.57,1.41,1.26,1.57l8.29,2.3c.71.16,1.49.85,1.72,1.54l2.42,5.86c.32.66.26,1.7-.13,2.31l-4.24,7.49c-.38.6-.28,1.5.22,2l6.44,6.44c.5.5,1.4.6,2,.22l7.49-4.23c.62-.39,1.65-.45,2.31-.13l5.85,2.43c.69.24,1.39,1.01,1.54,1.72l2.31,8.29c.15.69.86,1.26,1.57,1.26h9.09c.71,0,1.41-.57,1.57-1.26l2.3-8.29c.16-.71.85-1.49,1.54-1.72l1.87-.77"/>
      <path class="cls-1" d="m40.05,26.66l10.44,10.44c.52.52.72,1.27.53,1.98h0c-1.57,5.84-6.13,10.4-11.97,11.97h0c-.71.19-1.46-.01-1.98-.53l-10.42-10.42c-.72-.72-1.96-.35-2.16.64-1.38,6.67.52,13.87,5.69,19.04,6.07,6.07,14.94,7.63,22.45,4.68l21.59,21.59c3.22,3.22,8.46,3.41,11.76.29,3.43-3.24,3.48-8.65.17-11.97l-21.7-21.7c2.97-7.52,1.41-16.41-4.67-22.49-5.19-5.19-12.41-7.08-19.09-5.68-.99.21-1.36,1.44-.64,2.16Z"/>
    </g>
  </g>
</svg>