<?xml version="1.0" encoding="UTF-8"?>
<svg id="Layer_2" data-name="Layer 2" xmlns="http://www.w3.org/2000/svg" viewBox="0 0 74.53 85.33">
  <defs>
    <style>
      .cls-1 {
        fill: none;
        stroke: #f7a833;
        stroke-linecap: round;
        stroke-linejoin: round;
        stroke-width: 2.58px;
      }
    </style>
  </defs>
  <g id="Camada_2" data-name="Camada 2">
    <g>
      <circle class="cls-1" cx="37.3" cy="8.47" r="7.17" transform="translate(14.1 38.87) rotate(-65.44)"/>
      <line class="cls-1" x1="37.02" y1="68.41" x2="37.12" y2="45.67"/>
      <path class="cls-1" d="m37.26,22.56h0c3.88,0,7.69-1.09,10.98-3.14l10.9-6.78c1.71-1.06,3.96-.52,4.99,1.21h0c1.01,1.69.48,3.88-1.2,4.91l-16.23,9.99-1.18,39.69"/>
      <line class="cls-1" x1="37.02" y1="68.41" x2="37.02" y2="62.72"/>
      <path class="cls-1" d="m37.26,22.56h0c-3.88,0-7.69-1.09-10.98-3.14l-10.9-6.78c-1.71-1.06-3.96-.52-4.99,1.21h0c-1.01,1.69-.48,3.88,1.2,4.92l16.11,9.93.82,39.74"/>
      <polyline class="cls-1" points="23.03 84.04 23.03 68.63 51.49 68.63 51.49 84.04"/>
      <polyline class="cls-1" points="73.23 84.04 73.23 75.63 56.5 74.46"/>
      <polyline class="cls-1" points="18.03 74.46 1.29 75.63 1.29 84.04"/>
    </g>
  </g>
</svg>