<svg width="96" height="96" viewBox="0 0 96 96" fill="none" xmlns="http://www.w3.org/2000/svg">
    <g clip-path="url(#clip0_23_591)">
        <path
            d="M86.397 0H9.60301C4.29941 0 0 4.29941 0 9.60301V86.397C0 91.7006 4.29941 96 9.60301 96H86.397C91.7006 96 96 91.7006 96 86.397V9.60301C96 4.29941 91.7006 0 86.397 0Z"
            fill="#0064B0" />
        <path
            d="M42.3255 41.0536V39.0442C42.3125 37.7218 42.3803 36.3998 42.5287 35.0856C42.638 34.0963 42.9451 33.1391 43.4318 32.2709C43.9668 31.4 44.6735 30.6472 45.509 30.0583C46.6683 29.2458 47.8915 28.5285 49.1666 27.9135L51.5824 26.777C52.1308 26.5237 52.6658 26.2424 53.1854 25.9342C53.6719 25.6562 54.1134 25.306 54.4949 24.8956C54.8941 24.465 55.1923 23.9508 55.3679 23.3904C55.5903 22.6386 55.6919 21.8562 55.6689 21.0724C55.6689 19.2863 55.2324 18.1599 54.3594 17.6933C53.0819 17.1413 51.692 16.8989 50.303 16.9859C49.4525 16.9859 48.6623 16.9859 47.9248 17.0837C47.2571 17.131 46.6064 17.3155 46.0132 17.6256C45.481 17.9083 45.0399 18.3363 44.7413 18.8598C44.3955 19.544 44.2346 20.3068 44.2747 21.0724V23.1571H32.7376V21.0499C32.6789 18.7045 33.1255 16.3739 34.0471 14.2164C34.807 12.5895 36.0329 11.2249 37.5692 10.2954C39.2546 9.32086 41.1267 8.71306 43.0631 8.51176C45.4661 8.23252 47.8838 8.09932 50.303 8.11289C52.622 8.10052 54.9395 8.23373 57.2418 8.51176C59.128 8.71573 60.948 9.32411 62.5777 10.2954C64.0771 11.2585 65.258 12.6437 65.9718 14.2766C66.8638 16.4402 67.2747 18.7719 67.176 21.1101C67.2134 22.9242 67.0467 24.7367 66.6793 26.5136C66.3915 27.8171 65.8183 29.0406 65.001 30.096C64.1656 31.1269 63.1446 31.9922 61.9906 32.6472C60.5244 33.4754 59.0173 34.2289 57.4751 34.905C56.4046 35.2971 55.4243 35.9012 54.5927 36.6811C54.0538 37.3521 53.7853 38.2004 53.8401 39.0593V41.0687L42.3255 41.0536Z"
            fill="#F5BA06" />
        <path
            d="M84.4629 80.9558C83.945 71.9722 80.1162 63.4994 73.716 57.174C73.5526 57.0109 73.4417 56.8027 73.3974 56.576C73.3532 56.3494 73.3776 56.1148 73.4676 55.9022C73.8135 55.0319 73.8635 54.072 73.6099 53.1705C73.3564 52.269 72.8132 51.476 72.0644 50.9137C71.3155 50.3514 70.4024 50.051 69.466 50.059C68.5295 50.0669 67.6217 50.3827 66.8825 50.9577C66.7031 51.1067 66.4832 51.1985 66.2511 51.2213C66.019 51.2441 65.7854 51.1969 65.5805 51.0856C61.9547 49.0885 58.0149 47.7243 53.9304 47.0517C53.7122 47.0517 53.5015 46.9765 53.2832 46.9539C53.0481 46.9121 52.832 46.7972 52.6659 46.6256C52.4997 46.4541 52.3918 46.2345 52.3575 45.9981L52.2898 45.7573C52.1813 45.2108 51.9555 44.6943 51.6281 44.2434C51.3007 43.7926 50.8794 43.4181 50.3933 43.1458C49.8018 42.7885 49.1333 42.5781 48.4438 42.5322C47.7544 42.4862 47.0639 42.606 46.4302 42.8816C45.7965 43.1572 45.2381 43.5805 44.8015 44.1162C44.365 44.6518 44.0631 45.2842 43.921 45.9605C43.8788 46.2056 43.7599 46.4309 43.5813 46.604C43.4028 46.7772 43.1739 46.8891 42.9276 46.9238C38.3782 47.556 33.9904 49.0475 29.9982 51.3189C29.7885 51.4357 29.547 51.4826 29.3088 51.4529C29.0706 51.4231 28.8481 51.3182 28.6736 51.1533C28.2123 50.7314 27.6634 50.4168 27.0661 50.232C26.4689 50.0472 25.8382 49.9969 25.2192 50.0847C24.2823 50.2228 23.4172 50.6666 22.7585 51.3471C22.0998 52.0276 21.6843 52.9066 21.5767 53.8476C21.487 54.6919 21.6521 55.5438 22.0508 56.2935C22.1637 56.4933 22.2093 56.7241 22.1809 56.9518C22.1524 57.1795 22.0514 57.392 21.8928 57.5578C15.7333 63.8463 12.0599 72.1529 11.5523 80.9407C11.5224 81.5678 11.2996 82.1704 10.9144 82.6661C10.5291 83.1618 10.0002 83.5265 9.39985 83.7102L5.76486 84.8467C5.29213 84.9929 4.87859 85.2865 4.58474 85.6846C4.29089 86.0827 4.13215 86.5644 4.13174 87.0593V87.5033H91.8759V86.8636C91.8759 86.4258 91.7356 85.9995 91.4755 85.6473C91.2155 85.2952 90.8493 85.0356 90.4309 84.9069L86.6304 83.7404C86.0288 83.5516 85.4991 83.184 85.1119 82.6865C84.7246 82.189 84.4982 81.5852 84.4629 80.9558V80.9558Z"
            fill="white" />
    </g>
    <defs>
        <clipPath id="clip0_23_591">
            <rect width="96" height="96" fill="white" />
        </clipPath>
    </defs>
</svg>